<svg width="38" height="45" viewBox="0 0 38 45" fill="none" xmlns="http://www.w3.org/2000/svg">
<rect x="14.9697" y="20.7273" width="23.0303" height="24.1818" rx="11.5152" fill="white"/>
<path d="M26.4849 34.8333C28.6017 34.8333 30.3233 33.0257 30.3233 30.803C30.3233 28.5803 28.6017 26.7727 26.4849 26.7727C24.368 26.7727 22.6465 28.5803 22.6465 30.803C22.6465 33.0257 24.368 34.8333 26.4849 34.8333ZM26.4849 28.7879C27.5433 28.7879 28.4041 29.6917 28.4041 30.803C28.4041 31.9144 27.5433 32.8182 26.4849 32.8182C25.4264 32.8182 24.5657 31.9144 24.5657 30.803C24.5657 29.6917 25.4264 28.7879 26.4849 28.7879Z" fill="black"/>
<path d="M25.9284 42.7065C26.0954 42.8314 26.2902 42.8939 26.485 42.8939C26.6798 42.8939 26.8746 42.8314 27.0415 42.7065C27.3332 42.4899 34.1896 37.2918 34.1617 30.803C34.1617 26.3586 30.7177 22.7424 26.485 22.7424C22.2522 22.7424 18.8082 26.3586 18.8082 30.798C18.7804 37.2918 25.6367 42.4899 25.9284 42.7065ZM26.485 24.7576C29.6603 24.7576 32.2425 27.4689 32.2425 30.808C32.2627 35.2797 28.0318 39.2949 26.485 40.6118C24.939 39.2938 20.7072 35.2777 20.7274 30.803C20.7274 27.4689 23.3097 24.7576 26.485 24.7576Z" fill="black"/>
<path fill-rule="evenodd" clip-rule="evenodd" d="M1.37907 6.14141H31.7186C32.0843 6.14141 32.4351 6.30317 32.6937 6.59111C32.9523 6.87904 33.0976 7.26957 33.0976 7.67677C33.0976 8.08397 32.9523 8.47449 32.6937 8.76243C32.4351 9.05036 32.0843 9.21212 31.7186 9.21212H30.3395V20.7273H27.5814V9.21212H5.51627V36.8485H18.4243V39.9192H5.51627C4.78477 39.9192 4.08322 39.5957 3.56597 39.0198C3.04872 38.4439 2.75814 37.6629 2.75814 36.8485V9.21212H1.37907C1.01332 9.21212 0.662545 9.05036 0.40392 8.76243C0.145294 8.47449 0 8.08397 0 7.67677C0 7.26957 0.145294 6.87904 0.40392 6.59111C0.662545 6.30317 1.01332 6.14141 1.37907 6.14141ZM8.67833 0.449695C8.4197 0.737629 8.2744 1.12815 8.2744 1.53535C8.2744 1.94255 8.4197 2.33308 8.67833 2.62101C8.93695 2.90895 9.28772 3.07071 9.65347 3.07071H23.4441C23.8099 3.07071 24.1607 2.90895 24.4193 2.62101C24.6779 2.33308 24.8232 1.94255 24.8232 1.53535C24.8232 1.12815 24.6779 0.737629 24.4193 0.449695C24.1607 0.16176 23.8099 0 23.4441 0H9.65347C9.28772 0 8.93695 0.16176 8.67833 0.449695Z" fill="black"/>
</svg>
