<svg width="50" height="50" viewBox="0 0 50 50" fill="none" xmlns="http://www.w3.org/2000/svg">
<path d="M34.375 14.2553L36.7041 12.8623C37.2534 12.529 37.9785 12.7092 38.3081 13.2644C38.645 13.8159 38.4619 14.541 37.9053 14.8706L34.9756 16.6284C34.6094 16.8554 34.1406 16.8554 33.7744 16.6284L30.8447 14.8706C30.2881 14.541 30.105 13.8159 30.4419 13.2644C30.7715 12.7092 31.4966 12.529 32.0459 12.8623L34.375 14.2553ZM34.375 25C35.0195 25 35.5469 25.5273 35.5469 26.1718C35.5469 26.8164 35.0195 27.3437 34.375 27.3437H15.625C14.9805 27.3437 14.4531 26.8164 14.4531 26.1718C14.4531 25.5273 14.9805 25 15.625 25H34.375ZM34.375 32.0312C35.0195 32.0312 35.5469 32.5586 35.5469 33.2031C35.5469 33.8476 35.0195 34.375 34.375 34.375H15.625C14.9805 34.375 14.4531 33.8476 14.4531 33.2031C14.4531 32.5586 14.9805 32.0312 15.625 32.0312H34.375ZM6.25 13.2812C6.25 10.6921 8.34839 8.59372 10.9375 8.59372H39.0625C41.6479 8.59372 43.75 10.6921 43.75 13.2812V36.7187C43.75 39.3042 41.6479 41.4062 39.0625 41.4062H10.9375C8.34839 41.4062 6.25 39.3042 6.25 36.7187V13.2812ZM8.59375 13.2812V17.9687H41.4062V13.2812C41.4062 11.987 40.3589 10.9375 39.0625 10.9375H10.9375C9.64331 10.9375 8.59375 11.987 8.59375 13.2812ZM8.59375 36.7187C8.59375 38.0151 9.64331 39.0625 10.9375 39.0625H39.0625C40.3589 39.0625 41.4062 38.0151 41.4062 36.7187V20.3125H8.59375V36.7187Z" fill="black"/>
</svg>
