<svg width="50" height="58" viewBox="0 0 50 58" fill="none" xmlns="http://www.w3.org/2000/svg">
<path d="M14.0625 23.2143C14.0625 22.7407 14.2271 22.2865 14.5201 21.9516C14.8132 21.6167 15.2106 21.4286 15.625 21.4286H34.375C34.7894 21.4286 35.1868 21.6167 35.4799 21.9516C35.7729 22.2865 35.9375 22.7407 35.9375 23.2143C35.9375 23.6879 35.7729 24.1421 35.4799 24.477C35.1868 24.8118 34.7894 25 34.375 25H15.625C15.2106 25 14.8132 24.8118 14.5201 24.477C14.2271 24.1421 14.0625 23.6879 14.0625 23.2143ZM15.625 32.1428H34.375C34.7894 32.1428 35.1868 31.9547 35.4799 31.6198C35.7729 31.2849 35.9375 30.8307 35.9375 30.3571C35.9375 29.8835 35.7729 29.4293 35.4799 29.0944C35.1868 28.7596 34.7894 28.5714 34.375 28.5714H15.625C15.2106 28.5714 14.8132 28.7596 14.5201 29.0944C14.2271 29.4293 14.0625 29.8835 14.0625 30.3571C14.0625 30.8307 14.2271 31.2849 14.5201 31.6198C14.8132 31.9547 15.2106 32.1428 15.625 32.1428ZM45.3125 12.5V46.4286C45.3124 46.7329 45.2442 47.0322 45.1144 47.2979C44.9846 47.5637 44.7975 47.7871 44.5709 47.947C44.3443 48.1069 44.0857 48.198 43.8196 48.2115C43.5536 48.2251 43.2889 48.1607 43.0508 48.0245L37.5 44.8527L31.9492 48.0245C31.7321 48.1487 31.4927 48.2133 31.25 48.2133C31.0073 48.2133 30.7679 48.1487 30.5508 48.0245L25 44.8527L19.4492 48.0245C19.2321 48.1487 18.9927 48.2133 18.75 48.2133C18.5073 48.2133 18.2679 48.1487 18.0508 48.0245L12.5 44.8527L6.94922 48.0245C6.71106 48.1607 6.4464 48.2251 6.18035 48.2115C5.91431 48.198 5.65571 48.1069 5.42911 47.947C5.20252 47.7871 5.01544 47.5637 4.88564 47.2979C4.75585 47.0322 4.68764 46.7329 4.6875 46.4286V12.5C4.6875 11.5528 5.01674 10.6444 5.60279 9.97461C6.18884 9.30483 6.9837 8.92856 7.8125 8.92856H42.1875C43.0163 8.92856 43.8112 9.30483 44.3972 9.97461C44.9833 10.6444 45.3125 11.5528 45.3125 12.5ZM42.1875 12.5H7.8125V43.5402L11.8008 41.2589C12.0179 41.1348 12.2573 41.0701 12.5 41.0701C12.7427 41.0701 12.9821 41.1348 13.1992 41.2589L18.75 44.433L24.3008 41.2589C24.5179 41.1348 24.7573 41.0701 25 41.0701C25.2427 41.0701 25.4821 41.1348 25.6992 41.2589L31.25 44.433L36.8008 41.2589C37.0179 41.1348 37.2573 41.0701 37.5 41.0701C37.7427 41.0701 37.9821 41.1348 38.1992 41.2589L42.1875 43.5402V12.5Z" fill="black"/>
</svg>
